<mxfile host="app.diagrams.net" modified="2023-09-25T08:43:07.690Z" agent="Mozilla/5.0 (Macintosh; Intel Mac OS X 10_15_7) AppleWebKit/537.36 (KHTML, like Gecko) Chrome/116.0.0.0 Safari/537.36" etag="q2dPuOHYKO31d7ulCTR5" version="21.7.5" type="github">
  <diagram name="第 1 页" id="PzWZ8Mwg7vs05NVJSqgT">
    <mxGraphModel dx="5130" dy="3275" grid="1" gridSize="10" guides="1" tooltips="1" connect="1" arrows="1" fold="1" page="1" pageScale="1" pageWidth="1000000" pageHeight="1000000" math="0" shadow="0">
      <root>
        <mxCell id="0" />
        <mxCell id="1" parent="0" />
        <mxCell id="b2ll83bP22nqmT1dl_oE-64" value="" style="whiteSpace=wrap;html=1;aspect=fixed;fillColor=#fff2cc;strokeColor=#d6b656;" vertex="1" parent="1">
          <mxGeometry x="1710" y="1120" width="1590" height="1590" as="geometry" />
        </mxCell>
        <mxCell id="b2ll83bP22nqmT1dl_oE-67" value="" style="rounded=0;whiteSpace=wrap;html=1;fillColor=#dae8fc;strokeColor=#6c8ebf;" vertex="1" parent="1">
          <mxGeometry x="1760" y="1200" width="1500" height="690" as="geometry" />
        </mxCell>
        <mxCell id="b2ll83bP22nqmT1dl_oE-4" value="" style="rounded=1;whiteSpace=wrap;html=1;" vertex="1" parent="1">
          <mxGeometry x="2200" y="1270" width="680" height="140" as="geometry" />
        </mxCell>
        <mxCell id="b2ll83bP22nqmT1dl_oE-1" value="" style="shape=cube;whiteSpace=wrap;html=1;boundedLbl=1;backgroundOutline=1;darkOpacity=0.05;darkOpacity2=0.1;" vertex="1" parent="1">
          <mxGeometry x="2300" y="1300" width="120" height="80" as="geometry" />
        </mxCell>
        <mxCell id="b2ll83bP22nqmT1dl_oE-2" value="" style="shape=cube;whiteSpace=wrap;html=1;boundedLbl=1;backgroundOutline=1;darkOpacity=0.05;darkOpacity2=0.1;" vertex="1" parent="1">
          <mxGeometry x="2490" y="1300" width="120" height="80" as="geometry" />
        </mxCell>
        <mxCell id="b2ll83bP22nqmT1dl_oE-3" value="" style="shape=cube;whiteSpace=wrap;html=1;boundedLbl=1;backgroundOutline=1;darkOpacity=0.05;darkOpacity2=0.1;" vertex="1" parent="1">
          <mxGeometry x="2680" y="1300" width="120" height="80" as="geometry" />
        </mxCell>
        <mxCell id="b2ll83bP22nqmT1dl_oE-9" value="" style="endArrow=classic;html=1;rounded=0;" edge="1" parent="1">
          <mxGeometry width="50" height="50" relative="1" as="geometry">
            <mxPoint x="2420" y="1350" as="sourcePoint" />
            <mxPoint x="2490" y="1350" as="targetPoint" />
          </mxGeometry>
        </mxCell>
        <mxCell id="b2ll83bP22nqmT1dl_oE-10" value="" style="endArrow=classic;html=1;rounded=0;exitX=0;exitY=0;exitDx=120;exitDy=50;exitPerimeter=0;entryX=0;entryY=0.625;entryDx=0;entryDy=0;entryPerimeter=0;" edge="1" parent="1" source="b2ll83bP22nqmT1dl_oE-2" target="b2ll83bP22nqmT1dl_oE-3">
          <mxGeometry width="50" height="50" relative="1" as="geometry">
            <mxPoint x="2660" y="1420" as="sourcePoint" />
            <mxPoint x="2710" y="1370" as="targetPoint" />
          </mxGeometry>
        </mxCell>
        <mxCell id="b2ll83bP22nqmT1dl_oE-11" value="" style="endArrow=classic;html=1;rounded=0;exitX=0;exitY=0;exitDx=120;exitDy=50;exitPerimeter=0;entryX=0.985;entryY=0.571;entryDx=0;entryDy=0;entryPerimeter=0;" edge="1" parent="1" source="b2ll83bP22nqmT1dl_oE-3" target="b2ll83bP22nqmT1dl_oE-4">
          <mxGeometry width="50" height="50" relative="1" as="geometry">
            <mxPoint x="2660" y="1490" as="sourcePoint" />
            <mxPoint x="2710" y="1440" as="targetPoint" />
          </mxGeometry>
        </mxCell>
        <mxCell id="b2ll83bP22nqmT1dl_oE-12" value="" style="endArrow=classic;html=1;rounded=0;" edge="1" parent="1">
          <mxGeometry width="50" height="50" relative="1" as="geometry">
            <mxPoint x="2210" y="1350" as="sourcePoint" />
            <mxPoint x="2310" y="1350" as="targetPoint" />
          </mxGeometry>
        </mxCell>
        <mxCell id="b2ll83bP22nqmT1dl_oE-14" value="" style="rounded=1;whiteSpace=wrap;html=1;" vertex="1" parent="1">
          <mxGeometry x="2210" y="1470" width="680" height="140" as="geometry" />
        </mxCell>
        <mxCell id="b2ll83bP22nqmT1dl_oE-15" value="" style="shape=cube;whiteSpace=wrap;html=1;boundedLbl=1;backgroundOutline=1;darkOpacity=0.05;darkOpacity2=0.1;" vertex="1" parent="1">
          <mxGeometry x="2310" y="1490" width="120" height="80" as="geometry" />
        </mxCell>
        <mxCell id="b2ll83bP22nqmT1dl_oE-16" value="" style="shape=cube;whiteSpace=wrap;html=1;boundedLbl=1;backgroundOutline=1;darkOpacity=0.05;darkOpacity2=0.1;" vertex="1" parent="1">
          <mxGeometry x="2500" y="1490" width="120" height="80" as="geometry" />
        </mxCell>
        <mxCell id="b2ll83bP22nqmT1dl_oE-17" value="" style="shape=cube;whiteSpace=wrap;html=1;boundedLbl=1;backgroundOutline=1;darkOpacity=0.05;darkOpacity2=0.1;" vertex="1" parent="1">
          <mxGeometry x="2690" y="1490" width="120" height="80" as="geometry" />
        </mxCell>
        <mxCell id="b2ll83bP22nqmT1dl_oE-18" value="" style="endArrow=classic;html=1;rounded=0;" edge="1" parent="1">
          <mxGeometry width="50" height="50" relative="1" as="geometry">
            <mxPoint x="2430" y="1540" as="sourcePoint" />
            <mxPoint x="2500" y="1540" as="targetPoint" />
          </mxGeometry>
        </mxCell>
        <mxCell id="b2ll83bP22nqmT1dl_oE-19" value="" style="endArrow=classic;html=1;rounded=0;exitX=0;exitY=0;exitDx=120;exitDy=50;exitPerimeter=0;entryX=0;entryY=0.625;entryDx=0;entryDy=0;entryPerimeter=0;" edge="1" parent="1" source="b2ll83bP22nqmT1dl_oE-16" target="b2ll83bP22nqmT1dl_oE-17">
          <mxGeometry width="50" height="50" relative="1" as="geometry">
            <mxPoint x="2670" y="1610" as="sourcePoint" />
            <mxPoint x="2720" y="1560" as="targetPoint" />
          </mxGeometry>
        </mxCell>
        <mxCell id="b2ll83bP22nqmT1dl_oE-20" value="" style="endArrow=classic;html=1;rounded=0;exitX=0;exitY=0;exitDx=120;exitDy=50;exitPerimeter=0;" edge="1" parent="1" source="b2ll83bP22nqmT1dl_oE-17">
          <mxGeometry width="50" height="50" relative="1" as="geometry">
            <mxPoint x="2670" y="1680" as="sourcePoint" />
            <mxPoint x="2870" y="1540" as="targetPoint" />
          </mxGeometry>
        </mxCell>
        <mxCell id="b2ll83bP22nqmT1dl_oE-21" value="" style="endArrow=classic;html=1;rounded=0;" edge="1" parent="1">
          <mxGeometry width="50" height="50" relative="1" as="geometry">
            <mxPoint x="2220" y="1540" as="sourcePoint" />
            <mxPoint x="2320" y="1540" as="targetPoint" />
          </mxGeometry>
        </mxCell>
        <mxCell id="b2ll83bP22nqmT1dl_oE-22" value="" style="rounded=1;whiteSpace=wrap;html=1;" vertex="1" parent="1">
          <mxGeometry x="2210" y="1670" width="680" height="140" as="geometry" />
        </mxCell>
        <mxCell id="b2ll83bP22nqmT1dl_oE-23" value="" style="shape=cube;whiteSpace=wrap;html=1;boundedLbl=1;backgroundOutline=1;darkOpacity=0.05;darkOpacity2=0.1;" vertex="1" parent="1">
          <mxGeometry x="2310" y="1700" width="120" height="80" as="geometry" />
        </mxCell>
        <mxCell id="b2ll83bP22nqmT1dl_oE-24" value="" style="shape=cube;whiteSpace=wrap;html=1;boundedLbl=1;backgroundOutline=1;darkOpacity=0.05;darkOpacity2=0.1;" vertex="1" parent="1">
          <mxGeometry x="2500" y="1700" width="120" height="80" as="geometry" />
        </mxCell>
        <mxCell id="b2ll83bP22nqmT1dl_oE-25" value="" style="shape=cube;whiteSpace=wrap;html=1;boundedLbl=1;backgroundOutline=1;darkOpacity=0.05;darkOpacity2=0.1;" vertex="1" parent="1">
          <mxGeometry x="2690" y="1700" width="120" height="80" as="geometry" />
        </mxCell>
        <mxCell id="b2ll83bP22nqmT1dl_oE-26" value="" style="endArrow=classic;html=1;rounded=0;" edge="1" parent="1">
          <mxGeometry width="50" height="50" relative="1" as="geometry">
            <mxPoint x="2430" y="1750" as="sourcePoint" />
            <mxPoint x="2500" y="1750" as="targetPoint" />
          </mxGeometry>
        </mxCell>
        <mxCell id="b2ll83bP22nqmT1dl_oE-27" value="" style="endArrow=classic;html=1;rounded=0;exitX=0;exitY=0;exitDx=120;exitDy=50;exitPerimeter=0;entryX=0;entryY=0.625;entryDx=0;entryDy=0;entryPerimeter=0;" edge="1" parent="1" source="b2ll83bP22nqmT1dl_oE-24" target="b2ll83bP22nqmT1dl_oE-25">
          <mxGeometry width="50" height="50" relative="1" as="geometry">
            <mxPoint x="2670" y="1820" as="sourcePoint" />
            <mxPoint x="2720" y="1770" as="targetPoint" />
          </mxGeometry>
        </mxCell>
        <mxCell id="b2ll83bP22nqmT1dl_oE-28" value="" style="endArrow=classic;html=1;rounded=0;exitX=0;exitY=0;exitDx=120;exitDy=50;exitPerimeter=0;entryX=0.985;entryY=0.571;entryDx=0;entryDy=0;entryPerimeter=0;" edge="1" parent="1" source="b2ll83bP22nqmT1dl_oE-25" target="b2ll83bP22nqmT1dl_oE-22">
          <mxGeometry width="50" height="50" relative="1" as="geometry">
            <mxPoint x="2670" y="1890" as="sourcePoint" />
            <mxPoint x="2720" y="1840" as="targetPoint" />
          </mxGeometry>
        </mxCell>
        <mxCell id="b2ll83bP22nqmT1dl_oE-29" value="" style="endArrow=classic;html=1;rounded=0;" edge="1" parent="1">
          <mxGeometry width="50" height="50" relative="1" as="geometry">
            <mxPoint x="2220" y="1750" as="sourcePoint" />
            <mxPoint x="2320" y="1750" as="targetPoint" />
          </mxGeometry>
        </mxCell>
        <mxCell id="b2ll83bP22nqmT1dl_oE-30" value="ETH" style="text;html=1;strokeColor=none;fillColor=none;align=center;verticalAlign=middle;whiteSpace=wrap;rounded=0;" vertex="1" parent="1">
          <mxGeometry x="2510" y="1420" width="60" height="30" as="geometry" />
        </mxCell>
        <mxCell id="b2ll83bP22nqmT1dl_oE-31" value="BSC" style="text;html=1;strokeColor=none;fillColor=none;align=center;verticalAlign=middle;whiteSpace=wrap;rounded=0;" vertex="1" parent="1">
          <mxGeometry x="2510" y="1620" width="60" height="30" as="geometry" />
        </mxCell>
        <mxCell id="b2ll83bP22nqmT1dl_oE-32" value="Optimism" style="text;html=1;strokeColor=none;fillColor=none;align=center;verticalAlign=middle;whiteSpace=wrap;rounded=0;" vertex="1" parent="1">
          <mxGeometry x="2510" y="1820" width="60" height="30" as="geometry" />
        </mxCell>
        <mxCell id="b2ll83bP22nqmT1dl_oE-63" value="&lt;font style=&quot;font-size: 42px;&quot;&gt;Indexer run by uniswap&lt;/font&gt;" style="rounded=1;whiteSpace=wrap;html=1;" vertex="1" parent="1">
          <mxGeometry x="2000" y="350" width="1050" height="160" as="geometry" />
        </mxCell>
        <mxCell id="b2ll83bP22nqmT1dl_oE-68" value="&lt;font style=&quot;font-size: 42px;&quot;&gt;Chain layer&lt;/font&gt;" style="text;html=1;strokeColor=none;fillColor=none;align=center;verticalAlign=middle;whiteSpace=wrap;rounded=0;" vertex="1" parent="1">
          <mxGeometry x="2350" y="1220" width="350" height="30" as="geometry" />
        </mxCell>
        <mxCell id="b2ll83bP22nqmT1dl_oE-73" value="" style="rounded=0;whiteSpace=wrap;html=1;fillColor=#ffe6cc;strokeColor=#d79b00;" vertex="1" parent="1">
          <mxGeometry x="1770" y="2000" width="1500" height="610" as="geometry" />
        </mxCell>
        <mxCell id="b2ll83bP22nqmT1dl_oE-74" value="&lt;font style=&quot;font-size: 42px;&quot;&gt;companyA KYC&lt;/font&gt;" style="rounded=1;whiteSpace=wrap;html=1;" vertex="1" parent="1">
          <mxGeometry x="2120" y="2140" width="820" height="130" as="geometry" />
        </mxCell>
        <mxCell id="b2ll83bP22nqmT1dl_oE-75" value="&lt;font style=&quot;font-size: 42px;&quot;&gt;companyB Bank&lt;/font&gt;" style="rounded=1;whiteSpace=wrap;html=1;" vertex="1" parent="1">
          <mxGeometry x="2130" y="2300" width="820" height="130" as="geometry" />
        </mxCell>
        <mxCell id="b2ll83bP22nqmT1dl_oE-76" value="&lt;font style=&quot;font-size: 42px;&quot;&gt;companyC Tesla&lt;/font&gt;" style="rounded=1;whiteSpace=wrap;html=1;" vertex="1" parent="1">
          <mxGeometry x="2130" y="2460" width="820" height="130" as="geometry" />
        </mxCell>
        <mxCell id="b2ll83bP22nqmT1dl_oE-77" value="&lt;font style=&quot;font-size: 42px;&quot;&gt;OffCchain layer&lt;/font&gt;" style="text;html=1;strokeColor=none;fillColor=none;align=center;verticalAlign=middle;whiteSpace=wrap;rounded=0;" vertex="1" parent="1">
          <mxGeometry x="2165" y="2070" width="730" height="30" as="geometry" />
        </mxCell>
        <mxCell id="b2ll83bP22nqmT1dl_oE-82" value="&lt;font style=&quot;font-size: 42px;&quot;&gt;rules&lt;/font&gt;" style="ellipse;whiteSpace=wrap;html=1;" vertex="1" parent="1">
          <mxGeometry x="2340" y="710" width="440" height="220" as="geometry" />
        </mxCell>
        <mxCell id="b2ll83bP22nqmT1dl_oE-83" value="" style="endArrow=classic;html=1;rounded=0;" edge="1" parent="1" target="b2ll83bP22nqmT1dl_oE-82">
          <mxGeometry relative="1" as="geometry">
            <mxPoint x="2560" y="1340" as="sourcePoint" />
            <mxPoint x="2660" y="1340" as="targetPoint" />
          </mxGeometry>
        </mxCell>
        <mxCell id="b2ll83bP22nqmT1dl_oE-84" value="" style="shape=message;html=1;outlineConnect=0;" vertex="1" parent="b2ll83bP22nqmT1dl_oE-83">
          <mxGeometry width="20" height="14" relative="1" as="geometry">
            <mxPoint x="-10" y="-7" as="offset" />
          </mxGeometry>
        </mxCell>
        <mxCell id="b2ll83bP22nqmT1dl_oE-85" value="" style="endArrow=classic;html=1;rounded=0;entryX=0.5;entryY=1;entryDx=0;entryDy=0;" edge="1" parent="1" target="b2ll83bP22nqmT1dl_oE-82">
          <mxGeometry relative="1" as="geometry">
            <mxPoint x="2370" y="1350" as="sourcePoint" />
            <mxPoint x="2370" y="940" as="targetPoint" />
          </mxGeometry>
        </mxCell>
        <mxCell id="b2ll83bP22nqmT1dl_oE-86" value="" style="shape=message;html=1;outlineConnect=0;" vertex="1" parent="b2ll83bP22nqmT1dl_oE-85">
          <mxGeometry width="20" height="14" relative="1" as="geometry">
            <mxPoint x="-10" y="-7" as="offset" />
          </mxGeometry>
        </mxCell>
        <mxCell id="b2ll83bP22nqmT1dl_oE-89" value="" style="endArrow=classic;html=1;rounded=0;entryX=0.5;entryY=1;entryDx=0;entryDy=0;" edge="1" parent="1" source="b2ll83bP22nqmT1dl_oE-3">
          <mxGeometry relative="1" as="geometry">
            <mxPoint x="2380" y="1360" as="sourcePoint" />
            <mxPoint x="2570" y="940" as="targetPoint" />
          </mxGeometry>
        </mxCell>
        <mxCell id="b2ll83bP22nqmT1dl_oE-90" value="" style="shape=message;html=1;outlineConnect=0;" vertex="1" parent="b2ll83bP22nqmT1dl_oE-89">
          <mxGeometry width="20" height="14" relative="1" as="geometry">
            <mxPoint x="-10" y="-7" as="offset" />
          </mxGeometry>
        </mxCell>
        <mxCell id="b2ll83bP22nqmT1dl_oE-94" value="" style="endArrow=classic;html=1;rounded=0;" edge="1" parent="1">
          <mxGeometry relative="1" as="geometry">
            <mxPoint x="2560" y="690" as="sourcePoint" />
            <mxPoint x="2560" y="520" as="targetPoint" />
          </mxGeometry>
        </mxCell>
        <mxCell id="b2ll83bP22nqmT1dl_oE-95" value="" style="shape=message;html=1;outlineConnect=0;" vertex="1" parent="b2ll83bP22nqmT1dl_oE-94">
          <mxGeometry width="20" height="14" relative="1" as="geometry">
            <mxPoint x="-10" y="-7" as="offset" />
          </mxGeometry>
        </mxCell>
        <mxCell id="b2ll83bP22nqmT1dl_oE-96" value="" style="endArrow=classic;html=1;rounded=0;" edge="1" parent="1" target="b2ll83bP22nqmT1dl_oE-97">
          <mxGeometry width="50" height="50" relative="1" as="geometry">
            <mxPoint x="2780" y="830" as="sourcePoint" />
            <mxPoint x="3080" y="830" as="targetPoint" />
          </mxGeometry>
        </mxCell>
        <mxCell id="b2ll83bP22nqmT1dl_oE-97" value="&lt;font style=&quot;font-size: 42px;&quot;&gt;only need the transactions info in eth&lt;/font&gt;" style="rounded=0;whiteSpace=wrap;html=1;" vertex="1" parent="1">
          <mxGeometry x="3020" y="760" width="840" height="160" as="geometry" />
        </mxCell>
        <mxCell id="b2ll83bP22nqmT1dl_oE-99" value="&lt;font style=&quot;font-size: 42px;&quot;&gt;Indexer run by binance&lt;/font&gt;" style="rounded=1;whiteSpace=wrap;html=1;" vertex="1" parent="1">
          <mxGeometry x="300" y="1370" width="1050" height="160" as="geometry" />
        </mxCell>
        <mxCell id="b2ll83bP22nqmT1dl_oE-100" value="&lt;font style=&quot;font-size: 42px;&quot;&gt;rules&lt;/font&gt;" style="ellipse;whiteSpace=wrap;html=1;" vertex="1" parent="1">
          <mxGeometry x="605" y="1710" width="440" height="220" as="geometry" />
        </mxCell>
        <mxCell id="b2ll83bP22nqmT1dl_oE-101" value="&lt;font style=&quot;font-size: 42px;&quot;&gt;need KYC and trade history&lt;/font&gt;" style="rounded=0;whiteSpace=wrap;html=1;" vertex="1" parent="1">
          <mxGeometry x="405" y="2110" width="840" height="160" as="geometry" />
        </mxCell>
        <mxCell id="b2ll83bP22nqmT1dl_oE-102" value="" style="endArrow=classic;html=1;rounded=0;entryX=0.5;entryY=1;entryDx=0;entryDy=0;" edge="1" parent="1" source="b2ll83bP22nqmT1dl_oE-100" target="b2ll83bP22nqmT1dl_oE-99">
          <mxGeometry relative="1" as="geometry">
            <mxPoint x="825" y="1610" as="sourcePoint" />
            <mxPoint x="825" y="1610" as="targetPoint" />
          </mxGeometry>
        </mxCell>
        <mxCell id="b2ll83bP22nqmT1dl_oE-103" value="" style="shape=message;html=1;outlineConnect=0;" vertex="1" parent="b2ll83bP22nqmT1dl_oE-102">
          <mxGeometry width="20" height="14" relative="1" as="geometry">
            <mxPoint x="-10" y="-7" as="offset" />
          </mxGeometry>
        </mxCell>
        <mxCell id="b2ll83bP22nqmT1dl_oE-104" value="" style="endArrow=classic;html=1;rounded=0;entryX=0.5;entryY=0;entryDx=0;entryDy=0;exitX=0.5;exitY=1;exitDx=0;exitDy=0;" edge="1" parent="1" source="b2ll83bP22nqmT1dl_oE-100" target="b2ll83bP22nqmT1dl_oE-101">
          <mxGeometry width="50" height="50" relative="1" as="geometry">
            <mxPoint x="1830" y="1690" as="sourcePoint" />
            <mxPoint x="1880" y="1640" as="targetPoint" />
          </mxGeometry>
        </mxCell>
        <mxCell id="b2ll83bP22nqmT1dl_oE-105" value="" style="endArrow=classic;html=1;rounded=0;entryX=1;entryY=0.5;entryDx=0;entryDy=0;" edge="1" parent="1" target="b2ll83bP22nqmT1dl_oE-100">
          <mxGeometry relative="1" as="geometry">
            <mxPoint x="2130" y="2190" as="sourcePoint" />
            <mxPoint x="2230" y="2190" as="targetPoint" />
          </mxGeometry>
        </mxCell>
        <mxCell id="b2ll83bP22nqmT1dl_oE-106" value="" style="shape=message;html=1;outlineConnect=0;" vertex="1" parent="b2ll83bP22nqmT1dl_oE-105">
          <mxGeometry width="20" height="14" relative="1" as="geometry">
            <mxPoint x="-10" y="-7" as="offset" />
          </mxGeometry>
        </mxCell>
        <mxCell id="b2ll83bP22nqmT1dl_oE-107" value="" style="endArrow=classic;html=1;rounded=0;entryX=1;entryY=0.5;entryDx=0;entryDy=0;" edge="1" parent="1" target="b2ll83bP22nqmT1dl_oE-100">
          <mxGeometry relative="1" as="geometry">
            <mxPoint x="2390" y="1540" as="sourcePoint" />
            <mxPoint x="2460" y="1530" as="targetPoint" />
          </mxGeometry>
        </mxCell>
        <mxCell id="b2ll83bP22nqmT1dl_oE-108" value="" style="shape=message;html=1;outlineConnect=0;" vertex="1" parent="b2ll83bP22nqmT1dl_oE-107">
          <mxGeometry width="20" height="14" relative="1" as="geometry">
            <mxPoint x="-10" y="-7" as="offset" />
          </mxGeometry>
        </mxCell>
        <mxCell id="b2ll83bP22nqmT1dl_oE-109" value="" style="endArrow=classic;html=1;rounded=0;" edge="1" parent="1" source="b2ll83bP22nqmT1dl_oE-16">
          <mxGeometry relative="1" as="geometry">
            <mxPoint x="2400" y="1550" as="sourcePoint" />
            <mxPoint x="1050" y="1820" as="targetPoint" />
          </mxGeometry>
        </mxCell>
        <mxCell id="b2ll83bP22nqmT1dl_oE-110" value="" style="shape=message;html=1;outlineConnect=0;" vertex="1" parent="b2ll83bP22nqmT1dl_oE-109">
          <mxGeometry width="20" height="14" relative="1" as="geometry">
            <mxPoint x="-10" y="-7" as="offset" />
          </mxGeometry>
        </mxCell>
        <mxCell id="b2ll83bP22nqmT1dl_oE-111" value="" style="endArrow=classic;html=1;rounded=0;" edge="1" parent="1" source="b2ll83bP22nqmT1dl_oE-17">
          <mxGeometry relative="1" as="geometry">
            <mxPoint x="2410" y="1560" as="sourcePoint" />
            <mxPoint x="1050" y="1820" as="targetPoint" />
          </mxGeometry>
        </mxCell>
        <mxCell id="b2ll83bP22nqmT1dl_oE-112" value="" style="shape=message;html=1;outlineConnect=0;" vertex="1" parent="b2ll83bP22nqmT1dl_oE-111">
          <mxGeometry width="20" height="14" relative="1" as="geometry">
            <mxPoint x="-10" y="-7" as="offset" />
          </mxGeometry>
        </mxCell>
      </root>
    </mxGraphModel>
  </diagram>
</mxfile>
